<svg xmlns="http://www.w3.org/2000/svg" width="79.646" height="70" viewBox="0 0 79.646 70">
  <g id="cubiertos" transform="translate(0.001 101.004) rotate(-90)">
    <path id="Trazado_8" data-name="Trazado 8" d="M40.337,32.594V77.319a2.333,2.333,0,1,0,4.667,0V32.594a11.686,11.686,0,0,0,9.333-11.431V2.341a2.333,2.333,0,1,0-4.667,0V18.83H45V2.341a2.333,2.333,0,1,0-4.667,0V18.83H35.671V2.341a2.333,2.333,0,1,0-4.667,0V21.163a11.685,11.685,0,0,0,9.333,11.431Z" transform="translate(0 -0.007)" fill="#fff"/>
    <path id="Trazado_9" data-name="Trazado 9" d="M220.337,46.587V77.311a2.333,2.333,0,0,0,4.667,0V2.334A2.334,2.334,0,0,0,221.627.247,19.343,19.343,0,0,0,211,17.59V35.156A11.685,11.685,0,0,0,220.337,46.587Z" transform="translate(-152 0)" fill="#fff"/>
    <path id="Trazado_10" data-name="Trazado 10" d="M340.337,32.51V77.319a2.333,2.333,0,1,0,4.667,0V32.51c5.386-1.475,9.333-7.978,9.333-16.013,0-9.158-5.125-16.489-11.667-16.489S331,7.339,331,16.5C331,24.532,334.951,31.035,340.337,32.51Z" transform="translate(-253.333 -0.007)" fill="#fff"/>
  </g>
</svg>
